<svg width="100" height="100" viewBox="0 0 100 100" fill="none" xmlns="http://www.w3.org/2000/svg">
<rect x="84.2109" y="65.625" width="10.5263" height="31.25" rx="3" transform="rotate(-180 84.2109 65.625)" fill="#F1E1D1"/>
<rect x="84.2109" y="68.75" width="12.5" height="52.6316" rx="3" transform="rotate(90 84.2109 68.75)" fill="#F1E1D1"/>
<rect x="84.2109" y="18.75" width="12.5" height="52.6316" rx="3" transform="rotate(90 84.2109 18.75)" fill="#F1E1D1"/>
<rect y="12.5" width="12.5" height="100" rx="3" transform="rotate(-90 0 12.5)" fill="#F1E1D1"/>
<rect y="100" width="12.5" height="100" rx="3" transform="rotate(-90 0 100)" fill="#F1E1D1"/>
<rect x="68.4219" y="43.75" width="12.5" height="36.8421" rx="3" transform="rotate(90 68.4219 43.75)" fill="#F1E1D1"/>
<rect x="26.3164" y="81.25" width="10.5263" height="62.5" rx="3" transform="rotate(-180 26.3164 81.25)" fill="#F1E1D1"/>
<rect width="10.5263" height="100" rx="3" fill="#F1E1D1"/>
<rect x="89.4727" width="10.5263" height="100" rx="3" fill="#F1E1D1"/>
</svg>
